<svg width="512" height="512" viewBox="0 0 512 512" fill="none" xmlns="http://www.w3.org/2000/svg">
<path d="M64 160H448C465.664 160 480 145.664 480 128C480 110.336 465.664 96 448 96H64C46.336 96 32 110.336 32 128C32 145.664 46.336 160 64 160ZM448 224H64C46.336 224 32 238.336 32 256C32 273.664 46.336 288 64 288H448C465.664 288 480 273.664 480 256C480 238.336 465.664 224 448 224ZM448 352H64C46.336 352 32 366.336 32 384C32 401.664 46.336 416 64 416H448C465.664 416 480 401.664 480 384C480 366.336 465.664 352 448 352Z" fill="#043D9B"/>
</svg>
